HIERARCHY
ROOT Hips
{
  OFFSET 5.80788e-005 67.184 3.4734
  CHANNELS 6 Xposition Yposition Zposition Zrotation Xrotation Yrotation
  JOINT Chest
  {
    OFFSET 0 8.7983 -4.7612
    CHANNELS 3 Zrotation Xrotation Yrotation
    JOINT Chest2
    {
      OFFSET 0 8.0291 0.4195
      CHANNELS 3 Zrotation Xrotation Yrotation
      JOINT Chest3
      {
        OFFSET 0 9.9351 -2.2114
        CHANNELS 3 Zrotation Xrotation Yrotation
        JOINT Neck
        {
          OFFSET 0 22.3885 -0.4656
          CHANNELS 3 Zrotation Xrotation Yrotation
          JOINT Head
          {
            OFFSET -0.0001 12.643 3.4389
            CHANNELS 3 Zrotation Xrotation Yrotation
            End Site
            {
              OFFSET 0.0001 17.6655 0.5274
            }
          }
        }
        JOINT LeftCollar
        {
          OFFSET 2.2603 21.606 7.4023
          CHANNELS 3 Zrotation Xrotation Yrotation
          JOINT LeftShoulder
          {
            OFFSET 13.5163 -1.1332 -5.0146
            CHANNELS 3 Zrotation Xrotation Yrotation
            JOINT LeftElbow
            {
              OFFSET -0.0995 -28.05 -0.2431
              CHANNELS 3 Zrotation Xrotation Yrotation
              JOINT LeftWrist
              {
                OFFSET 0.0679 -23.3996 -0.1402
                CHANNELS 3 Zrotation Xrotation Yrotation
                JOINT LeftFinger1
                {
                  OFFSET 0.7932 -9.069 2.5189
                  CHANNELS 3 Zrotation Xrotation Yrotation
                  JOINT LeftFinger11
                  {
                    OFFSET -0.8272 -3.3923 0.5977
                    CHANNELS 3 Zrotation Xrotation Yrotation
                    JOINT LeftFinger12
                    {
                      OFFSET -0.5649 -2.3158 0.4082
                      CHANNELS 3 Zrotation Xrotation Yrotation
                      End Site
                      {
                        OFFSET -0.4919 -1.6479 0.2673
                      }
                    }
                  }
                }
                JOINT LeftFinger2
                {
                  OFFSET 0.9159 -9.2044 0.2193
                  CHANNELS 3 Zrotation Xrotation Yrotation
                  JOINT LeftFinger21
                  {
                    OFFSET 0.0117 -4.1944 -0.0248
                    CHANNELS 3 Zrotation Xrotation Yrotation
                    JOINT LeftFinger22
                    {
                      OFFSET 0.0071 -2.3249 -0.0142
                      CHANNELS 3 Zrotation Xrotation Yrotation
                      End Site
                      {
                        OFFSET -0.1475 -2.0882 0.0028
                      }
                    }
                  }
                }
                JOINT LeftFinger3
                {
                  OFFSET 0.6113 -8.7231 -2.0637
                  CHANNELS 3 Zrotation Xrotation Yrotation
                  JOINT LeftFinger31
                  {
                    OFFSET -0.1927 -3.8059 -0.2383
                    CHANNELS 3 Zrotation Xrotation Yrotation
                    JOINT LeftFinger32
                    {
                      OFFSET -0.1091 -2.1688 -0.1362
                      CHANNELS 3 Zrotation Xrotation Yrotation
                      End Site
                      {
                        OFFSET -0.2358 -1.9176 -0.0906
                      }
                    }
                  }
                }
                JOINT LeftFinger4
                {
                  OFFSET -0.6151 -8.0947 -3.5641
                  CHANNELS 3 Zrotation Xrotation Yrotation
                  JOINT LeftFinger41
                  {
                    OFFSET -0.4882 -2.341 -0.6462
                    CHANNELS 3 Zrotation Xrotation Yrotation
                    JOINT LeftFinger42
                    {
                      OFFSET -0.3575 -1.7167 -0.4742
                      CHANNELS 3 Zrotation Xrotation Yrotation
                      End Site
                      {
                        OFFSET -0.4187 -1.5237 -0.3496
                      }
                    }
                  }
                }
                JOINT LeftFinger0
                {
                  OFFSET -1.42 -1.8761 1.4223
                  CHANNELS 3 Zrotation Xrotation Yrotation
                  JOINT LeftFinger01
                  {
                    OFFSET -1.1471 -3.4929 2.6334
                    CHANNELS 3 Zrotation Xrotation Yrotation
                    JOINT LeftFinger02
                    {
                      OFFSET -0.823 -2.3 1.6571
                      CHANNELS 3 Zrotation Xrotation Yrotation
                      End Site
                      {
                        OFFSET -0.5822 -1.6914 1.1582
                      }
                    }
                  }
                }
              }
            }
          }
        }
        JOINT RightCollar
        {
          OFFSET -2.2603 21.606 7.4023
          CHANNELS 3 Zrotation Xrotation Yrotation
          JOINT RightShoulder
          {
            OFFSET -13.5187 -1.1334 -5.0155
            CHANNELS 3 Zrotation Xrotation Yrotation
            JOINT RightElbow
            {
              OFFSET 0.0994 -28.0499 -0.2431
              CHANNELS 3 Zrotation Xrotation Yrotation
              JOINT RightWrist
              {
                OFFSET -0.0679 -23.3996 -0.1402
                CHANNELS 3 Zrotation Xrotation Yrotation
                JOINT RightFinger1
                {
                  OFFSET -0.7932 -9.0691 2.5189
                  CHANNELS 3 Zrotation Xrotation Yrotation
                  JOINT RightFinger11
                  {
                    OFFSET 0.8272 -3.3923 0.5977
                    CHANNELS 3 Zrotation Xrotation Yrotation
                    JOINT RightFinger12
                    {
                      OFFSET 0.565 -2.3158 0.4082
                      CHANNELS 3 Zrotation Xrotation Yrotation
                      End Site
                      {
                        OFFSET 0.4919 -1.6479 0.2673
                      }
                    }
                  }
                }
                JOINT RightFinger2
                {
                  OFFSET -0.916 -9.2044 0.2193
                  CHANNELS 3 Zrotation Xrotation Yrotation
                  JOINT RightFinger21
                  {
                    OFFSET -0.0117 -4.1944 -0.0248
                    CHANNELS 3 Zrotation Xrotation Yrotation
                    JOINT RightFinger22
                    {
                      OFFSET -0.0071 -2.3249 -0.0142
                      CHANNELS 3 Zrotation Xrotation Yrotation
                      End Site
                      {
                        OFFSET 0.1475 -2.0882 0.0028
                      }
                    }
                  }
                }
                JOINT RightFinger3
                {
                  OFFSET -0.6113 -8.7231 -2.0637
                  CHANNELS 3 Zrotation Xrotation Yrotation
                  JOINT RightFinger31
                  {
                    OFFSET 0.1927 -3.8059 -0.2383
                    CHANNELS 3 Zrotation Xrotation Yrotation
                    JOINT RightFinger32
                    {
                      OFFSET 0.1091 -2.1688 -0.1362
                      CHANNELS 3 Zrotation Xrotation Yrotation
                      End Site
                      {
                        OFFSET 0.2358 -1.9176 -0.0906
                      }
                    }
                  }
                }
                JOINT RightFinger4
                {
                  OFFSET 0.6151 -8.0947 -3.564
                  CHANNELS 3 Zrotation Xrotation Yrotation
                  JOINT RightFinger41
                  {
                    OFFSET 0.4882 -2.341 -0.6462
                    CHANNELS 3 Zrotation Xrotation Yrotation
                    JOINT RightFinger42
                    {
                      OFFSET 0.3574 -1.7166 -0.4742
                      CHANNELS 3 Zrotation Xrotation Yrotation
                      End Site
                      {
                        OFFSET 0.4187 -1.5237 -0.3496
                      }
                    }
                  }
                }
                JOINT RightFinger0
                {
                  OFFSET 1.4199 -1.8761 1.4221
                  CHANNELS 3 Zrotation Xrotation Yrotation
                  JOINT RightFinger01
                  {
                    OFFSET 1.1472 -3.4929 2.6336
                    CHANNELS 3 Zrotation Xrotation Yrotation
                    JOINT RightFinger02
                    {
                      OFFSET 0.8229 -2.3 1.6571
                      CHANNELS 3 Zrotation Xrotation Yrotation
                      End Site
                      {
                        OFFSET 0.5822 -1.6914 1.1582
                      }
                    }
                  }
                }
              }
            }
          }
        }
      }
    }
  }
  JOINT RightHip
  {
    OFFSET -9.412 3.9771 -0.7758
    CHANNELS 3 Zrotation Xrotation Yrotation
    JOINT RightKnee
    {
      OFFSET -0.7531 -40.938 0
      CHANNELS 3 Zrotation Xrotation Yrotation
      JOINT RightAnkle
      {
        OFFSET 0 -40.1986 0
        CHANNELS 3 Zrotation Xrotation Yrotation
        JOINT RightToe
        {
          OFFSET 0 -4.4182 9.239
          CHANNELS 3 Zrotation Xrotation Yrotation
          End Site
          {
            OFFSET 0 0 6.1981
          }
        }
      }
    }
  }
  JOINT LeftHip
  {
    OFFSET 9.4119 3.9773 -0.7758
    CHANNELS 3 Zrotation Xrotation Yrotation
    JOINT LeftKnee
    {
      OFFSET 0.7532 -40.9383 0
      CHANNELS 3 Zrotation Xrotation Yrotation
      JOINT LeftAnkle
      {
        OFFSET 0 -40.1986 0
        CHANNELS 3 Zrotation Xrotation Yrotation
        JOINT LeftToe
        {
          OFFSET 0 -4.4182 9.239
          CHANNELS 3 Zrotation Xrotation Yrotation
          End Site
          {
            OFFSET 0 0 6.1981
          }
        }
      }
    }
  }
}
MOTION
Frames:	5
Frame Time:	0.0333333
-43.6971 1.99299 8.1296 -180 -89.9981 -180 -0.671198 8.11502 0.155346 -1.38609 16.2276 0.414185 -1.3861 16.2277 0.414187 6.21952e-006 17.9983 -7.46825e-007 26.2197 -7.20279 3.53157 15.5839 3.59572 4.31069 67.6368 48.9552 -19.1044 18.5434 -45.1001 -10.639 -5.90694 1.87565 -23.7368 1.88845e-015 -1.19271e-015 3.18055e-015 -1.09332e-015 3.97569e-016 -0 1.68967e-015 0 -0 1.88845e-015 -1.19271e-015 3.18055e-015 -0.0128104 0.00232083 8.61216e-005 -1.23246e-014 -2.38542e-015 -1.59028e-015 1.88845e-015 -1.19271e-015 3.18055e-015 -0.0160319 0.00298748 0.000860546 -2.28602e-015 -7.95139e-016 -0 1.88845e-015 -1.19271e-015 3.18055e-015 -0.0125743 0.00311709 0.0028228 5.76476e-015 -1.59028e-015 -3.18055e-015 1.88845e-015 -1.19271e-015 3.18055e-015 -1.09332e-015 3.97569e-016 -0 1.68967e-015 0 -0 -1.43853 0.726693 -1.56488 -6.47114 34.3901 -18.4489 170.303 -40.5174 176.646 10.3229 -7.94572 -9.97529 -6.84534e-007 3.78699e-007 1.52035e-006 6.84534e-007 -3.78699e-007 -1.52035e-006 2.38542e-015 3.18055e-015 -0 -6.84534e-007 3.78699e-007 1.52035e-006 0.0129877 0.00231804 -8.49786e-005 2.38542e-015 6.36111e-015 1.59028e-015 -6.84534e-007 3.78699e-007 1.52035e-006 0.0163155 0.00302892 -0.000866393 -2.38542e-015 -9.54166e-015 3.18055e-015 -6.84534e-007 3.78699e-007 1.52035e-006 0.0145736 0.00366938 -0.0032607 -3.18055e-015 0 -3.18055e-015 -6.84534e-007 3.78699e-007 1.52035e-006 6.84534e-007 -3.78699e-007 -1.52035e-006 2.38542e-015 3.18055e-015 -0 -11.9353 -27.5183 -16.3506 73.8111 87.689 -75.6216 5.89747 10.2574 10.3899 1.59028e-015 1.62865e-006 -0 16.1515 0.893652 1.05582 -1.47 11.5288 0.777971 -0.998517 27.2949 11.3308 1.83004e-006 4.71014e-008 3.07703e-007 
-43.6976 1.99319 8.12971 -180 -89.9981 -180 -0.671198 8.11502 0.155346 -1.38609 16.2276 0.414185 -1.3861 16.2277 0.414187 6.21952e-006 17.9983 -7.46825e-007 26.1783 -6.50333 3.18493 15.5839 3.59572 4.31069 67.6368 48.9552 -19.1044 18.5434 -45.1001 -10.639 -5.90694 1.87565 -23.7368 1.88845e-015 -1.19271e-015 3.18055e-015 -1.09332e-015 3.97569e-016 -0 1.68967e-015 0 -0 1.88845e-015 -1.19271e-015 3.18055e-015 -0.0128104 0.00232083 8.61216e-005 -1.23246e-014 -2.38542e-015 -1.59028e-015 1.88845e-015 -1.19271e-015 3.18055e-015 -0.0160319 0.00298748 0.000860546 -2.28602e-015 -7.95139e-016 -0 1.88845e-015 -1.19271e-015 3.18055e-015 -0.0125743 0.00311709 0.0028228 5.76476e-015 -1.59028e-015 -3.18055e-015 1.88845e-015 -1.19271e-015 3.18055e-015 -1.09332e-015 3.97569e-016 -0 1.68967e-015 0 -0 -1.43853 0.726693 -1.56488 -6.47115 34.3901 -18.4489 170.198 -40.8531 176.578 10.3095 -7.87583 -9.74942 -3.44324e-006 -5.44183e-006 1.82469e-007 7.95139e-016 2.8625e-014 -0 0 2.8625e-014 -0 -3.44324e-006 -5.44183e-006 1.82469e-007 0.0129188 0.00231929 -8.85286e-005 7.95139e-016 0 3.18055e-015 -3.44324e-006 -5.44183e-006 1.82469e-007 0.0163001 0.00303778 -0.000875944 -2.38542e-015 0 4.77083e-015 -3.44324e-006 -5.44183e-006 1.82469e-007 0.0145848 0.0036797 -0.00326611 -2.38542e-015 3.18055e-015 -3.18055e-015 -3.44324e-006 -5.44183e-006 1.82469e-007 7.95139e-016 2.8625e-014 -0 0 2.8625e-014 -0 -11.8922 -27.4426 -16.2539 66.9386 87.5837 -68.7314 5.89385 10.2681 10.3968 1.48458e-006 -1.66118e-006 -6.47576e-007 16.1519 0.894158 1.0558 -1.47002 11.5281 0.777855 -0.9989 27.295 11.3309 -7.40948e-007 -8.54352e-008 -1.5838e-006 
-43.6981 1.99338 8.12982 -180 -89.9981 -180 -0.671198 8.11502 0.155346 -1.38609 16.2276 0.414185 -1.3861 16.2277 0.414187 6.21952e-006 17.9983 -7.46825e-007 26.1414 -5.80478 2.83982 15.5839 3.59572 4.31069 67.6368 48.9552 -19.1044 18.5434 -45.1001 -10.639 -5.90694 1.87565 -23.7368 1.88845e-015 -1.19271e-015 3.18055e-015 -1.09332e-015 3.97569e-016 -0 1.68967e-015 0 -0 1.88845e-015 -1.19271e-015 3.18055e-015 -0.0128104 0.00232083 8.61216e-005 -1.23246e-014 -2.38542e-015 -1.59028e-015 1.88845e-015 -1.19271e-015 3.18055e-015 -0.0160319 0.00298748 0.000860546 -2.28602e-015 -7.95139e-016 -0 1.88845e-015 -1.19271e-015 3.18055e-015 -0.0125743 0.00311709 0.0028228 5.76476e-015 -1.59028e-015 -3.18055e-015 1.88845e-015 -1.19271e-015 3.18055e-015 -1.09332e-015 3.97569e-016 -0 1.68967e-015 0 -0 -1.43853 0.726693 -1.56488 -6.47114 34.3901 -18.4489 170.093 -41.1885 176.509 10.2959 -7.80592 -9.52352 -7.95139e-016 3.18055e-015 -0 -3.52755e-007 -1.54918e-006 7.54227e-007 -1.59028e-015 -3.18055e-015 -0 -7.95139e-016 3.18055e-015 -0 0.0129908 0.00232215 -8.7376e-005 -7.05658e-007 -3.18055e-015 1.50843e-006 -7.95139e-016 3.18055e-015 -0 0.0163372 0.00303295 -0.000873299 -7.05698e-007 1.98952e-007 1.50842e-006 -7.95139e-016 3.18055e-015 -0 0.0144982 0.00366281 -0.00325104 3.97569e-015 -1.54901e-006 3.18055e-015 -7.95139e-016 3.18055e-015 -0 -3.52755e-007 -1.54918e-006 7.54227e-007 -1.59028e-015 -3.18055e-015 -0 -11.8492 -27.3673 -16.1574 60.7209 87.4469 -62.4961 5.8902 10.2788 10.4037 -3.5731e-006 -1.73108e-006 -2.71784e-007 16.1522 0.894404 1.05576 -1.47002 11.5279 0.777771 -0.999266 27.295 11.3309 -3.69678e-007 -4.61283e-006 -9.23349e-007 
-43.6986 1.99358 8.12993 -180 -89.9981 -180 -0.671198 8.11502 0.155346 -1.38609 16.2276 0.414185 -1.3861 16.2277 0.414187 6.21952e-006 17.9983 -7.46825e-007 26.1087 -5.10726 2.49617 15.5839 3.59572 4.31069 67.6368 48.9552 -19.1044 18.5433 -45.1001 -10.6391 -5.90693 1.87563 -23.7368 -1.78906e-015 -3.97569e-016 -1.59028e-015 6.95746e-016 -1.19271e-015 -0 2.98177e-016 -1.98785e-015 -4.77083e-015 -1.78906e-015 -3.97569e-016 -1.59028e-015 -0.0128076 0.00232452 8.87977e-005 -5.26779e-015 -7.95139e-016 -0 -1.78906e-015 -3.97569e-016 -1.59028e-015 -0.01602 0.00298617 0.000857974 3.47873e-015 2.78299e-015 -1.59028e-015 -1.78906e-015 -3.97569e-016 -1.59028e-015 -0.0125978 0.00311845 0.00282417 -2.28602e-015 1.59028e-015 -1.59028e-015 -1.78906e-015 -3.97569e-016 -1.59028e-015 6.95746e-016 -1.19271e-015 -0 2.98177e-016 -1.98785e-015 -4.77083e-015 -1.43853 0.726693 -1.56488 -6.47111 34.3901 -18.449 169.986 -41.5238 176.439 10.282 -7.73601 -9.29753 -3.97569e-015 0 -7.95139e-015 -1.28541e-007 4.86935e-006 -1.80033e-006 -7.95139e-016 -6.36111e-015 -0 -3.97569e-015 0 -7.95139e-015 0.0129122 0.00231503 -8.26227e-005 3.18055e-015 0 3.18055e-015 -3.97569e-015 0 -7.95139e-015 0.0163524 0.0030446 -0.000874216 -2.38542e-015 -3.18055e-015 7.95139e-015 -3.97569e-015 0 -7.95139e-015 0.0146179 0.00367288 -0.00326859 -7.95139e-016 3.18055e-015 1.59028e-015 -3.97569e-015 0 -7.95139e-015 -1.28541e-007 4.86935e-006 -1.80033e-006 -7.95139e-016 -6.36111e-015 -0 -11.8066 -27.291 -16.0611 55.1783 87.2828 -56.9355 5.8866 10.2894 10.4105 -1.42814e-006 -9.42384e-006 2.27966e-006 16.1525 0.894649 1.05574 -1.47 11.5276 0.777667 -0.999638 27.2951 11.331 5.44547e-007 -2.52089e-007 -6.38047e-007 
-43.6991 1.99378 8.13003 -180 -89.9981 -180 -0.671198 8.11502 0.155346 -1.38609 16.2276 0.414185 -1.3861 16.2277 0.414187 6.21952e-006 17.9983 -7.46825e-007 26.0803 -4.41081 2.15388 15.5839 3.59572 4.31069 67.6368 48.9552 -19.1044 18.5433 -45.1001 -10.6391 -5.90693 1.87563 -23.7368 -1.78906e-015 -3.97569e-016 -1.59028e-015 6.95746e-016 -1.19271e-015 -0 2.98177e-016 -1.98785e-015 -4.77083e-015 -1.78906e-015 -3.97569e-016 -1.59028e-015 -0.0128076 0.00232452 8.87977e-005 -5.26779e-015 -7.95139e-016 -0 -1.78906e-015 -3.97569e-016 -1.59028e-015 -0.01602 0.00298617 0.000857974 3.47873e-015 2.78299e-015 -1.59028e-015 -1.78906e-015 -3.97569e-016 -1.59028e-015 -0.0125978 0.00311845 0.00282417 -2.28602e-015 1.59028e-015 -1.59028e-015 -1.78906e-015 -3.97569e-016 -1.59028e-015 6.95746e-016 -1.19271e-015 -0 2.98177e-016 -1.98785e-015 -4.77083e-015 -1.43853 0.726693 -1.56488 -6.47112 34.3901 -18.4489 169.879 -41.859 176.368 10.2679 -7.66621 -9.07148 -7.26347e-007 2.08527e-007 1.4962e-006 -1.76556e-031 -3.18055e-015 -3.18055e-015 7.95139e-016 6.36111e-015 3.18055e-015 -7.26347e-007 2.08527e-007 1.4962e-006 0.0129942 0.00232751 -8.50481e-005 -7.26496e-007 2.55529e-007 1.49617e-006 -7.26347e-007 2.08527e-007 1.4962e-006 0.0163352 0.0030472 -0.000876222 3.97569e-015 0 1.59028e-015 -7.26347e-007 2.08527e-007 1.4962e-006 0.0145498 0.0036688 -0.00325924 -7.26541e-007 1.25285e-006 1.49618e-006 -7.26347e-007 2.08527e-007 1.4962e-006 -1.76556e-031 -3.18055e-015 -3.18055e-015 7.95139e-016 6.36111e-015 3.18055e-015 -11.7637 -27.2156 -15.9648 50.3177 87.0966 -52.0575 5.883 10.3 10.4173 2.41351e-006 -4.77604e-006 2.04993e-007 16.1529 0.89519 1.05572 -1.46999 11.5269 0.777584 -1 27.2953 11.331 5.44548e-007 -2.52089e-007 -6.38047e-007 
